<svg width="50" height="50" viewBox="0 0 50 50" fill="none" xmlns="http://www.w3.org/2000/svg">
<path id="ActivitySVG" d="M42.9091 39.2143C43.9091 37.5476 44.5 35.619 44.5 33.5238C44.5 27.5952 39.9318 22.8095 34.2727 22.8095C28.6136 22.8095 24.0455 27.5952 24.0455 33.5238C24.0455 39.4524 28.6136 44.2381 34.25 44.2381C36.25 44.2381 38.1136 43.619 39.6818 42.5714L46.7727 50L50 46.619L42.9091 39.2143ZM34.2727 39.4762C32.7658 39.4762 31.3206 38.8491 30.2551 37.7328C29.1895 36.6165 28.5909 35.1025 28.5909 33.5238C28.5909 31.9451 29.1895 30.4311 30.2551 29.3148C31.3206 28.1986 32.7658 27.5714 34.2727 27.5714C35.7796 27.5714 37.2248 28.1986 38.2904 29.3148C39.3559 30.4311 39.9545 31.9451 39.9545 33.5238C39.9545 35.1025 39.3559 36.6165 38.2904 37.7328C37.2248 38.8491 35.7796 39.4762 34.2727 39.4762ZM33.4545 19.2381C31.7727 19.2857 30.1591 19.6667 28.6818 20.3095L27.4318 18.3333L18.7955 33.0476L11.9545 24.6667L3.70455 38.5L0 35.7143L11.3636 16.6667L18.1818 25L27.2727 9.52381L33.4545 19.2381ZM39.3409 20.4286C37.8864 19.7619 36.3182 19.3571 34.6818 19.2619L46.3182 0L50 2.80952L39.3409 20.4286Z" fill="white"/>
</svg>
