<svg width="106" height="102" viewBox="0 0 106 102" fill="none" xmlns="http://www.w3.org/2000/svg">
<ellipse cx="53" cy="51" rx="53" ry="51" fill="#27A966"/>
<path d="M104 51C104 77.9901 81.2397 100 53 100C24.7603 100 2 77.9901 2 51C2 24.0099 24.7603 2 53 2C81.2397 2 104 24.0099 104 51Z" stroke="black" stroke-opacity="0.02" stroke-width="4"/>
<path d="M29 64.2097V74H38.9986L68.488 45.125L58.4893 35.3347L29 64.2097ZM76.2203 37.5538C76.4674 37.3123 76.6635 37.0254 76.7973 36.7096C76.9311 36.3938 77 36.0552 77 35.7133C77 35.3713 76.9311 35.0328 76.7973 34.7169C76.6635 34.4011 76.4674 34.1142 76.2203 33.8727L69.9811 27.7635C69.7344 27.5215 69.4414 27.3295 69.1189 27.1984C68.7963 27.0674 68.4506 27 68.1014 27C67.7522 27 67.4064 27.0674 67.0838 27.1984C66.7613 27.3295 66.4683 27.5215 66.2216 27.7635L61.3423 32.5412L71.3409 42.3315L76.2203 37.5538Z" fill="white"/>
</svg>
