<svg width="50" height="50" viewBox="0 0 50 50" fill="none" xmlns="http://www.w3.org/2000/svg">
<rect x="50" y="50" width="50" height="50" rx="8" transform="rotate(180 50 50)" fill="#007BFF"/>
<path d="M12 31.7924V37H17.2076L32.5667 21.641L27.359 16.4333L12 31.7924ZM36.5939 17.6137C36.7226 17.4853 36.8248 17.3327 36.8944 17.1647C36.9641 16.9967 37 16.8166 37 16.6347C37 16.4528 36.9641 16.2727 36.8944 16.1047C36.8248 15.9368 36.7226 15.7841 36.5939 15.6557L33.3443 12.4061C33.2159 12.2774 33.0632 12.1752 32.8953 12.1056C32.7273 12.0359 32.5472 12 32.3653 12C32.1834 12 32.0033 12.0359 31.8353 12.1056C31.6673 12.1752 31.5147 12.2774 31.3863 12.4061L28.8449 14.9474L34.0526 20.1551L36.5939 17.6137Z" fill="white"/>
</svg>
