<svg width="38" height="38" viewBox="0 0 38 38" fill="none" xmlns="http://www.w3.org/2000/svg">
<path d="M0 29.6886V37.5H7.81144L30.85 14.4615L23.0385 6.65002L0 29.6886ZM36.8908 8.42061C37.0839 8.2279 37.2371 7.999 37.3417 7.74701C37.4462 7.49501 37.5 7.22488 37.5 6.95206C37.5 6.67925 37.4462 6.40912 37.3417 6.15712C37.2371 5.90513 37.0839 5.67622 36.8908 5.48351L32.0165 0.609176C31.8238 0.416069 31.5949 0.262866 31.3429 0.158336C31.0909 0.0538051 30.8208 0 30.5479 0C30.2751 0 30.005 0.0538051 29.753 0.158336C29.501 0.262866 29.2721 0.416069 29.0794 0.609176L25.2674 4.42116L33.0788 12.2326L36.8908 8.42061Z" fill="white"/>
</svg>
