<svg width="194" height="127" viewBox="0 0 194 127" fill="none" xmlns="http://www.w3.org/2000/svg">
<path id="EmailVector" d="M19.6666 126.833C14.3499 126.833 9.80014 125.456 6.01725 122.7C2.23436 119.944 0.339696 116.628 0.333252 112.75V28.25C0.333252 24.3771 2.22792 21.0628 6.01725 18.3072C9.80659 15.5516 14.3564 14.1714 19.6666 14.1667H117.3C116.655 16.5139 116.333 18.8612 116.333 21.2084C116.333 23.5556 116.655 25.9028 117.3 28.25H19.6666L96.9999 63.4584L132.283 47.4386C134.539 48.9643 136.997 50.2858 139.659 51.403C142.32 52.5203 145.098 53.4874 147.992 54.3042L96.9999 77.5417L19.6666 42.3334V112.75H174.333V55.7125C178.039 55.1257 181.503 54.3042 184.725 53.248C187.947 52.1917 190.928 50.9007 193.667 49.375V112.75C193.667 116.623 191.775 119.94 187.992 122.7C184.209 125.46 179.656 126.838 174.333 126.833H19.6666ZM164.667 42.3334C156.611 42.3334 149.764 40.2796 144.125 36.1719C138.486 32.0643 135.667 27.0764 135.667 21.2084C135.667 15.3403 138.486 10.3525 144.125 6.24483C149.764 2.13719 156.611 0.083374 164.667 0.083374C172.722 0.083374 179.569 2.13719 185.208 6.24483C190.847 10.3525 193.667 15.3403 193.667 21.2084C193.667 27.0764 190.847 32.0643 185.208 36.1719C179.569 40.2796 172.722 42.3334 164.667 42.3334Z" fill="#0FA958"/>
</svg>
