<svg width="42" height="42" viewBox="0 0 42 42" fill="none" xmlns="http://www.w3.org/2000/svg">
<path id="Vector" d="M27.75 36.7083L33.5833 30.875V35.6667H35.6667V27.3333H27.3333V29.4167H32.125L26.2917 35.25L27.75 36.7083ZM4.41667 37.75C3.27084 37.75 2.28959 37.3424 1.47292 36.5271C0.656253 35.7118 0.248615 34.7306 0.250004 33.5833V4.41667C0.250004 3.27083 0.658337 2.29028 1.475 1.475C2.29167 0.659722 3.27223 0.251389 4.41667 0.25H33.5833C34.7292 0.25 35.7104 0.658333 36.5271 1.475C37.3438 2.29167 37.7514 3.27222 37.75 4.41667V18.375C37.0903 18.0625 36.4132 17.7937 35.7188 17.5687C35.0243 17.3437 34.3125 17.1785 33.5833 17.0729V4.41667H4.41667V33.5833H17.0208C17.125 34.3472 17.2903 35.0764 17.5167 35.7708C17.7431 36.4653 18.0118 37.125 18.3229 37.75H4.41667ZM4.41667 31.5V33.5833V4.41667V17.0729V16.9167V31.5ZM8.58334 29.4167H17.0729C17.1771 28.6875 17.3424 27.9757 17.5688 27.2812C17.7951 26.5868 18.0465 25.9097 18.3229 25.25H8.58334V29.4167ZM8.58334 21.0833H21.2917C22.4028 20.0417 23.6438 19.1736 25.0146 18.4792C26.3854 17.7847 27.8528 17.316 29.4167 17.0729V16.9167H8.58334V21.0833ZM8.58334 12.75H29.4167V8.58333H8.58334V12.75ZM31.5 41.9167C28.6181 41.9167 26.1618 40.9007 24.1313 38.8688C22.1007 36.8368 21.0847 34.3806 21.0833 31.5C21.0819 28.6194 22.0979 26.1632 24.1313 24.1313C26.1646 22.0993 28.6208 21.0833 31.5 21.0833C34.3792 21.0833 36.8361 22.0993 38.8708 24.1313C40.9056 26.1632 41.9208 28.6194 41.9167 31.5C41.9125 34.3806 40.8965 36.8375 38.8688 38.8708C36.841 40.9042 34.3847 41.9194 31.5 41.9167Z" fill="white"/>
</svg>
