<svg width="50" height="50" viewBox="0 0 50 50" fill="none" xmlns="http://www.w3.org/2000/svg">
<rect x="50" y="50" width="50" height="50" rx="8" transform="rotate(180 50 50)" fill="#E81E21"/>
<rect x="39" y="38" width="28" height="26" transform="rotate(180 39 38)" fill="white"/>
<path d="M25.4226 46C37.3333 46 47 36.6667 47 25.1667C47 13.6667 37.3333 4.33333 25.4226 4.33333C13.5119 4.33333 3.84524 13.6667 3.84524 25.1667C3.84524 36.6667 13.5119 46 25.4226 46ZM12.4762 21.0625H23.2649L18.3884 25.7708C19.3882 26.9062 20.6315 27.8183 22.0323 28.4442C23.4331 29.0701 24.958 29.3948 26.5015 29.3958C31.6153 29.3958 35.8876 25.9375 36.9881 21.3125L39.0595 21.9792C37.6786 27.4375 32.5863 31.4792 26.5015 31.4792C22.6607 31.4792 19.2299 29.8333 16.8564 27.25L12.4762 31.4792V21.0625Z" fill="#E81E21"/>
</svg>
