<svg width="50" height="50" viewBox="0 0 50 50" fill="none" xmlns="http://www.w3.org/2000/svg">
<rect width="50" height="50" rx="8" fill="#27A966"/>
<rect x="11" y="12" width="28" height="26" fill="white"/>
<path d="M24.5774 4C12.6667 4 3 13.3333 3 24.8333C3 36.3333 12.6667 45.6667 24.5774 45.6667C36.4881 45.6667 46.1548 36.3333 46.1548 24.8333C46.1548 13.3333 36.4881 4 24.5774 4ZM37.5238 28.9375H26.7351L31.6116 24.2292C30.6118 23.0938 29.3685 22.1817 27.9677 21.5558C26.5669 20.9299 25.042 20.6052 23.4985 20.6042C18.3847 20.6042 14.1124 24.0625 13.0119 28.6875L10.9405 28.0208C12.3214 22.5625 17.4137 18.5208 23.4985 18.5208C27.3393 18.5208 30.7701 20.1667 33.1436 22.75L37.5238 18.5208V28.9375Z" fill="#27A966"/>
</svg>
