<svg width="33" height="33" viewBox="0 0 33 33" fill="none" xmlns="http://www.w3.org/2000/svg">
<path d="M21.7497 12.3175V4.25H23.4997V0.75H9.49969V4.25H11.2497V12.3175L0.994695 29.6075C0.837165 29.8732 0.752764 30.1758 0.750067 30.4847C0.747369 30.7936 0.826471 31.0977 0.979337 31.3661C1.1322 31.6345 1.35338 31.8576 1.62042 32.0129C1.88745 32.1681 2.19081 32.2499 2.49969 32.25H30.4997C30.8086 32.2499 31.1119 32.1681 31.379 32.0129C31.646 31.8576 31.8672 31.6345 32.0201 31.3661C32.1729 31.0977 32.252 30.7936 32.2493 30.4847C32.2466 30.1758 32.1622 29.8732 32.0047 29.6075L21.7497 12.3175ZM14.3997 13.8575C14.6269 13.5546 14.7497 13.1861 14.7497 12.8075V4.25H18.2497V12.8075C18.2498 13.1216 18.3344 13.4299 18.4947 13.7L22.2397 20H10.7597L14.3997 13.8575Z" fill="white"/>
</svg>
