<svg width="50" height="50" viewBox="0 0 50 50" fill="none" xmlns="http://www.w3.org/2000/svg">
<path d="M5 0H45C47.75 0 49.975 2.25 49.975 5L50 50L40 40H5C2.25 40 -1.49012e-06 37.75 -1.49012e-06 35V5C-1.49012e-06 2.25 2.25 0 5 0ZM12.5 30H37.5C38.875 30 40 28.875 40 27.5C40 26.125 38.875 25 37.5 25H12.5C11.125 25 10 26.125 10 27.5C10 28.875 11.125 30 12.5 30ZM12.5 22.5H37.5C38.875 22.5 40 21.375 40 20C40 18.625 38.875 17.5 37.5 17.5H12.5C11.125 17.5 10 18.625 10 20C10 21.375 11.125 22.5 12.5 22.5ZM12.5 15H37.5C38.875 15 40 13.875 40 12.5C40 11.125 38.875 10 37.5 10H12.5C11.125 10 10 11.125 10 12.5C10 13.875 11.125 15 12.5 15Z" fill="#BEBEBF"/>
</svg>
