<svg width="38" height="38" viewBox="0 0 38 38" fill="none" xmlns="http://www.w3.org/2000/svg">
<path d="M3.75 0H33.75C35.8125 0 37.4813 1.6875 37.4813 3.75L37.5 37.5L30 30H3.75C1.6875 30 0 28.3125 0 26.25V3.75C0 1.6875 1.6875 0 3.75 0ZM9.375 22.5H28.125C29.1563 22.5 30 21.6563 30 20.625C30 19.5937 29.1563 18.75 28.125 18.75H9.375C8.34375 18.75 7.5 19.5937 7.5 20.625C7.5 21.6563 8.34375 22.5 9.375 22.5ZM9.375 16.875H28.125C29.1563 16.875 30 16.0313 30 15C30 13.9687 29.1563 13.125 28.125 13.125H9.375C8.34375 13.125 7.5 13.9687 7.5 15C7.5 16.0313 8.34375 16.875 9.375 16.875ZM9.375 11.25H28.125C29.1563 11.25 30 10.4063 30 9.375C30 8.34375 29.1563 7.5 28.125 7.5H9.375C8.34375 7.5 7.5 8.34375 7.5 9.375C7.5 10.4063 8.34375 11.25 9.375 11.25Z" fill="white"/>
</svg>
