<svg width="296" height="255" viewBox="0 0 296 255" fill="none" xmlns="http://www.w3.org/2000/svg">
<path d="M221.027 117.514L214.655 136H210.803L218.83 114.672H221.291L221.027 117.514ZM226.359 136L219.973 117.514L219.694 114.672H222.17L230.227 136H226.359ZM226.052 128.09V131.005H214.45V128.09H226.052Z" fill="black"/>
<path d="M221.188 163.361H215.754L215.725 160.681H220.471C221.271 160.681 221.95 160.563 222.507 160.329C223.073 160.085 223.503 159.738 223.796 159.289C224.089 158.83 224.235 158.278 224.235 157.634C224.235 156.921 224.099 156.34 223.825 155.891C223.552 155.441 223.132 155.114 222.565 154.909C222.009 154.704 221.296 154.602 220.427 154.602H216.867V173H213.19V151.672H220.427C221.599 151.672 222.644 151.784 223.562 152.009C224.489 152.233 225.275 152.585 225.92 153.063C226.574 153.532 227.067 154.128 227.399 154.851C227.741 155.573 227.912 156.433 227.912 157.429C227.912 158.308 227.702 159.113 227.282 159.846C226.862 160.568 226.242 161.159 225.422 161.618C224.602 162.077 223.581 162.351 222.36 162.438L221.188 163.361ZM221.027 173H214.597L216.252 170.085H221.027C221.857 170.085 222.551 169.948 223.107 169.675C223.664 169.392 224.079 169.006 224.353 168.518C224.636 168.02 224.777 167.438 224.777 166.774C224.777 166.081 224.655 165.48 224.411 164.973C224.167 164.455 223.781 164.06 223.254 163.786C222.727 163.503 222.038 163.361 221.188 163.361H217.058L217.087 160.681H222.463L223.298 161.691C224.47 161.73 225.432 161.989 226.184 162.468C226.945 162.946 227.512 163.566 227.883 164.328C228.254 165.09 228.439 165.91 228.439 166.789C228.439 168.146 228.142 169.284 227.546 170.202C226.96 171.12 226.115 171.818 225.012 172.297C223.908 172.766 222.58 173 221.027 173Z" fill="black"/>
<path d="M225.466 203.057H229.128C229.011 204.453 228.62 205.698 227.956 206.792C227.292 207.876 226.359 208.73 225.158 209.355C223.957 209.98 222.497 210.293 220.778 210.293C219.46 210.293 218.273 210.059 217.219 209.59C216.164 209.111 215.261 208.438 214.509 207.568C213.757 206.689 213.181 205.63 212.78 204.39C212.39 203.149 212.194 201.763 212.194 200.229V198.457C212.194 196.924 212.395 195.537 212.795 194.297C213.205 193.057 213.791 191.997 214.553 191.118C215.314 190.229 216.228 189.551 217.292 189.082C218.366 188.613 219.572 188.379 220.91 188.379C222.609 188.379 224.045 188.691 225.217 189.316C226.389 189.941 227.297 190.806 227.941 191.909C228.596 193.013 228.996 194.277 229.143 195.703H225.48C225.383 194.785 225.168 193.999 224.836 193.345C224.514 192.69 224.035 192.192 223.4 191.851C222.766 191.499 221.936 191.323 220.91 191.323C220.07 191.323 219.338 191.479 218.713 191.792C218.088 192.104 217.565 192.563 217.146 193.169C216.726 193.774 216.408 194.521 216.193 195.41C215.988 196.289 215.886 197.295 215.886 198.428V200.229C215.886 201.304 215.979 202.28 216.164 203.159C216.359 204.028 216.652 204.775 217.043 205.4C217.443 206.025 217.951 206.509 218.566 206.851C219.182 207.192 219.919 207.363 220.778 207.363C221.823 207.363 222.668 207.197 223.312 206.865C223.967 206.533 224.46 206.05 224.792 205.415C225.134 204.771 225.358 203.984 225.466 203.057Z" fill="black"/>
<path d="M219.064 247H214.509L214.538 244.085H219.064C220.383 244.085 221.486 243.797 222.375 243.221C223.273 242.645 223.947 241.819 224.396 240.745C224.855 239.671 225.085 238.392 225.085 236.907V235.75C225.085 234.598 224.953 233.577 224.689 232.688C224.436 231.8 224.055 231.053 223.547 230.447C223.049 229.842 222.434 229.383 221.701 229.07C220.979 228.758 220.144 228.602 219.196 228.602H214.421V225.672H219.196C220.612 225.672 221.906 225.911 223.078 226.39C224.25 226.858 225.261 227.537 226.11 228.426C226.97 229.314 227.629 230.379 228.088 231.619C228.547 232.859 228.776 234.246 228.776 235.779V236.907C228.776 238.44 228.547 239.827 228.088 241.067C227.629 242.308 226.97 243.372 226.11 244.261C225.251 245.14 224.226 245.818 223.034 246.297C221.853 246.766 220.529 247 219.064 247ZM216.545 225.672V247H212.868V225.672H216.545Z" fill="black"/>
<path d="M276.5 115.75C271.67 115.75 267.75 119.67 267.75 124.5C267.75 129.33 271.67 133.25 276.5 133.25C281.33 133.25 285.25 129.33 285.25 124.5C285.25 119.67 281.33 115.75 276.5 115.75ZM276.5 107C266.84 107 259 114.84 259 124.5C259 134.16 266.84 142 276.5 142C286.16 142 294 134.16 294 124.5C294 114.84 286.16 107 276.5 107ZM276.5 138.5C268.765 138.5 262.5 132.235 262.5 124.5C262.5 116.765 268.765 110.5 276.5 110.5C284.235 110.5 290.5 116.765 290.5 124.5C290.5 132.235 284.235 138.5 276.5 138.5Z" fill="#27A966"/>
<path d="M276.5 190.75C271.67 190.75 267.75 194.67 267.75 199.5C267.75 204.33 271.67 208.25 276.5 208.25C281.33 208.25 285.25 204.33 285.25 199.5C285.25 194.67 281.33 190.75 276.5 190.75ZM276.5 182C266.84 182 259 189.84 259 199.5C259 209.16 266.84 217 276.5 217C286.16 217 294 209.16 294 199.5C294 189.84 286.16 182 276.5 182ZM276.5 213.5C268.765 213.5 262.5 207.235 262.5 199.5C262.5 191.765 268.765 185.5 276.5 185.5C284.235 185.5 290.5 191.765 290.5 199.5C290.5 207.235 284.235 213.5 276.5 213.5Z" fill="#27A966"/>
<path d="M276.5 146.25C267.53 146.25 260.25 153.53 260.25 162.5C260.25 171.47 267.53 178.75 276.5 178.75C285.47 178.75 292.75 171.47 292.75 162.5C292.75 153.53 285.47 146.25 276.5 146.25ZM276.5 175.5C269.317 175.5 263.5 169.683 263.5 162.5C263.5 155.317 269.317 149.5 276.5 149.5C283.682 149.5 289.5 155.317 289.5 162.5C289.5 169.683 283.682 175.5 276.5 175.5Z" fill="#D9D9D9"/>
<path d="M276.5 219.25C267.53 219.25 260.25 226.53 260.25 235.5C260.25 244.47 267.53 251.75 276.5 251.75C285.47 251.75 292.75 244.47 292.75 235.5C292.75 226.53 285.47 219.25 276.5 219.25ZM276.5 248.5C269.317 248.5 263.5 242.683 263.5 235.5C263.5 228.317 269.317 222.5 276.5 222.5C283.682 222.5 289.5 228.317 289.5 235.5C289.5 242.683 283.682 248.5 276.5 248.5Z" fill="#D9D9D9"/>
<path d="M18.0273 10.5137L11.6553 29H7.80273L15.8301 7.67188H18.291L18.0273 10.5137ZM23.3594 29L16.9727 10.5137L16.6943 7.67188H19.1699L27.2266 29H23.3594ZM23.0518 21.0898V24.0049H11.4502V21.0898H23.0518Z" fill="black"/>
<path d="M18.1885 56.3613H12.7539L12.7246 53.6807H17.4707C18.2715 53.6807 18.9502 53.5635 19.5068 53.3291C20.0732 53.085 20.5029 52.7383 20.7959 52.2891C21.0889 51.8301 21.2354 51.2783 21.2354 50.6338C21.2354 49.9209 21.0986 49.3398 20.8252 48.8906C20.5518 48.4414 20.1318 48.1143 19.5654 47.9092C19.0088 47.7041 18.2959 47.6016 17.4268 47.6016H13.8672V66H10.1904V44.6719H17.4268C18.5986 44.6719 19.6436 44.7842 20.5615 45.0088C21.4893 45.2334 22.2754 45.585 22.9199 46.0635C23.5742 46.5322 24.0674 47.1279 24.3994 47.8506C24.7412 48.5732 24.9121 49.4326 24.9121 50.4287C24.9121 51.3076 24.7021 52.1133 24.2822 52.8457C23.8623 53.5684 23.2422 54.1592 22.4219 54.6182C21.6016 55.0771 20.5811 55.3506 19.3604 55.4385L18.1885 56.3613ZM18.0273 66H11.5967L13.252 63.085H18.0273C18.8574 63.085 19.5508 62.9482 20.1074 62.6748C20.6641 62.3916 21.0791 62.0059 21.3525 61.5176C21.6357 61.0195 21.7773 60.4385 21.7773 59.7744C21.7773 59.0811 21.6553 58.4805 21.4111 57.9727C21.167 57.4551 20.7812 57.0596 20.2539 56.7861C19.7266 56.5029 19.0381 56.3613 18.1885 56.3613H14.0576L14.0869 53.6807H19.4629L20.2979 54.6914C21.4697 54.7305 22.4316 54.9893 23.1836 55.4678C23.9453 55.9463 24.5117 56.5664 24.8828 57.3281C25.2539 58.0898 25.4395 58.9102 25.4395 59.7891C25.4395 61.1465 25.1416 62.2842 24.5459 63.2021C23.96 64.1201 23.1152 64.8184 22.0117 65.2969C20.9082 65.7656 19.5801 66 18.0273 66Z" fill="black"/>
<path d="M22.4658 96.0566H26.1279C26.0107 97.4531 25.6201 98.6982 24.9561 99.792C24.292 100.876 23.3594 101.73 22.1582 102.355C20.957 102.98 19.4971 103.293 17.7783 103.293C16.46 103.293 15.2734 103.059 14.2188 102.59C13.1641 102.111 12.2607 101.438 11.5088 100.568C10.7568 99.6895 10.1807 98.6299 9.78027 97.3896C9.38965 96.1494 9.19434 94.7627 9.19434 93.2295V91.457C9.19434 89.9238 9.39453 88.5371 9.79492 87.2969C10.2051 86.0566 10.791 84.9971 11.5527 84.1182C12.3145 83.2295 13.2275 82.5508 14.292 82.082C15.3662 81.6133 16.5723 81.3789 17.9102 81.3789C19.6094 81.3789 21.0449 81.6914 22.2168 82.3164C23.3887 82.9414 24.2969 83.8057 24.9414 84.9092C25.5957 86.0127 25.9961 87.2773 26.1426 88.7031H22.4805C22.3828 87.7852 22.168 86.999 21.8359 86.3447C21.5137 85.6904 21.0352 85.1924 20.4004 84.8506C19.7656 84.499 18.9355 84.3232 17.9102 84.3232C17.0703 84.3232 16.3379 84.4795 15.7129 84.792C15.0879 85.1045 14.5654 85.5635 14.1455 86.1689C13.7256 86.7744 13.4082 87.5215 13.1934 88.4102C12.9883 89.2891 12.8857 90.2949 12.8857 91.4277V93.2295C12.8857 94.3037 12.9785 95.2803 13.1641 96.1592C13.3594 97.0283 13.6523 97.7754 14.043 98.4004C14.4434 99.0254 14.9512 99.5088 15.5664 99.8506C16.1816 100.192 16.9189 100.363 17.7783 100.363C18.8232 100.363 19.668 100.197 20.3125 99.8652C20.9668 99.5332 21.46 99.0498 21.792 98.415C22.1338 97.7705 22.3584 96.9844 22.4658 96.0566Z" fill="black"/>
<path d="M16.0645 140H11.5088L11.5381 137.085H16.0645C17.3828 137.085 18.4863 136.797 19.375 136.221C20.2734 135.645 20.9473 134.819 21.3965 133.745C21.8555 132.671 22.085 131.392 22.085 129.907V128.75C22.085 127.598 21.9531 126.577 21.6895 125.688C21.4355 124.8 21.0547 124.053 20.5469 123.447C20.0488 122.842 19.4336 122.383 18.7012 122.07C17.9785 121.758 17.1436 121.602 16.1963 121.602H11.4209V118.672H16.1963C17.6123 118.672 18.9062 118.911 20.0781 119.39C21.25 119.858 22.2607 120.537 23.1104 121.426C23.9697 122.314 24.6289 123.379 25.0879 124.619C25.5469 125.859 25.7764 127.246 25.7764 128.779V129.907C25.7764 131.44 25.5469 132.827 25.0879 134.067C24.6289 135.308 23.9697 136.372 23.1104 137.261C22.251 138.14 21.2256 138.818 20.0342 139.297C18.8525 139.766 17.5293 140 16.0645 140ZM13.5449 118.672V140H9.86816V118.672H13.5449Z" fill="black"/>
<path d="M73.5 8.75C68.67 8.75 64.75 12.67 64.75 17.5C64.75 22.33 68.67 26.25 73.5 26.25C78.33 26.25 82.25 22.33 82.25 17.5C82.25 12.67 78.33 8.75 73.5 8.75ZM73.5 0C63.84 0 56 7.84 56 17.5C56 27.16 63.84 35 73.5 35C83.16 35 91 27.16 91 17.5C91 7.84 83.16 0 73.5 0ZM73.5 31.5C65.765 31.5 59.5 25.235 59.5 17.5C59.5 9.765 65.765 3.5 73.5 3.5C81.235 3.5 87.5 9.765 87.5 17.5C87.5 25.235 81.235 31.5 73.5 31.5Z" fill="#27A966"/>
<path d="M73.5 39.25C64.53 39.25 57.25 46.53 57.25 55.5C57.25 64.47 64.53 71.75 73.5 71.75C82.47 71.75 89.75 64.47 89.75 55.5C89.75 46.53 82.47 39.25 73.5 39.25ZM73.5 68.5C66.3175 68.5 60.5 62.6825 60.5 55.5C60.5 48.3175 66.3175 42.5 73.5 42.5C80.6825 42.5 86.5 48.3175 86.5 55.5C86.5 62.6825 80.6825 68.5 73.5 68.5Z" fill="#D9D9D9"/>
<path d="M73.5 75.25C64.53 75.25 57.25 82.53 57.25 91.5C57.25 100.47 64.53 107.75 73.5 107.75C82.47 107.75 89.75 100.47 89.75 91.5C89.75 82.53 82.47 75.25 73.5 75.25ZM73.5 104.5C66.3175 104.5 60.5 98.6825 60.5 91.5C60.5 84.3175 66.3175 78.5 73.5 78.5C80.6825 78.5 86.5 84.3175 86.5 91.5C86.5 98.6825 80.6825 104.5 73.5 104.5Z" fill="#D9D9D9"/>
<path d="M73.5 112.25C64.53 112.25 57.25 119.53 57.25 128.5C57.25 137.47 64.53 144.75 73.5 144.75C82.47 144.75 89.75 137.47 89.75 128.5C89.75 119.53 82.47 112.25 73.5 112.25ZM73.5 141.5C66.3175 141.5 60.5 135.683 60.5 128.5C60.5 121.317 66.3175 115.5 73.5 115.5C80.6825 115.5 86.5 121.317 86.5 128.5C86.5 135.683 80.6825 141.5 73.5 141.5Z" fill="#D9D9D9"/>
<line x1="104.743" y1="194.182" x2="197.743" y2="51.1822" stroke="black" stroke-width="3"/>
</svg>
