<svg width="46" height="52" viewBox="0 0 46 52" fill="none" xmlns="http://www.w3.org/2000/svg">
<path id="Vector" d="M40.8889 5.77778V46.2222H5.11111V5.77778H40.8889ZM43.7 0H2.3C1.02222 0 0 1.15556 0 2.6V49.4C0 50.5556 1.02222 52 2.3 52H43.7C44.7222 52 46 50.5556 46 49.4V2.6C46 1.15556 44.7222 0 43.7 0ZM20.4444 11.5556H35.7778V17.3333H20.4444V11.5556ZM20.4444 23.1111H35.7778V28.8889H20.4444V23.1111ZM20.4444 34.6667H35.7778V40.4444H20.4444V34.6667ZM10.2222 11.5556H15.3333V17.3333H10.2222V11.5556ZM10.2222 23.1111H15.3333V28.8889H10.2222V23.1111ZM10.2222 34.6667H15.3333V40.4444H10.2222V34.6667Z" fill="white"/>
</svg>
