<svg width="35" height="35" viewBox="0 0 35 35" fill="none" xmlns="http://www.w3.org/2000/svg">
<path d="M31.1111 0H3.88889C2.85749 0 1.86834 0.409721 1.13903 1.13903C0.409721 1.86834 0 2.85749 0 3.88889V31.1111C0 32.1425 0.409721 33.1317 1.13903 33.861C1.86834 34.5903 2.85749 35 3.88889 35H31.1111C32.1425 35 33.1317 34.5903 33.861 33.861C34.5903 33.1317 35 32.1425 35 31.1111V3.88889C35 2.85749 34.5903 1.86834 33.861 1.13903C33.1317 0.409721 32.1425 0 31.1111 0ZM31.1111 3.88889V31.1111H3.88889V3.88889H31.1111ZM13.6111 27.2222L5.83333 19.4444L8.575 16.6833L13.6111 21.7194L26.425 8.90556L29.1667 11.6667" fill="#27A966"/>
</svg>
