<svg width="35" height="35" viewBox="0 0 35 35" fill="none" xmlns="http://www.w3.org/2000/svg">
<path d="M17.5 8.75C12.67 8.75 8.75 12.67 8.75 17.5C8.75 22.33 12.67 26.25 17.5 26.25C22.33 26.25 26.25 22.33 26.25 17.5C26.25 12.67 22.33 8.75 17.5 8.75ZM17.5 0C7.84 0 0 7.84 0 17.5C0 27.16 7.84 35 17.5 35C27.16 35 35 27.16 35 17.5C35 7.84 27.16 0 17.5 0ZM17.5 31.5C9.765 31.5 3.5 25.235 3.5 17.5C3.5 9.765 9.765 3.5 17.5 3.5C25.235 3.5 31.5 9.765 31.5 17.5C31.5 25.235 25.235 31.5 17.5 31.5Z" fill="#27A966"/>
</svg>
