<svg width="106" height="102" viewBox="0 0 106 102" fill="none" xmlns="http://www.w3.org/2000/svg">
<g id="Submit Questionnaire">
<g id="Ellipse 1">
<ellipse cx="53" cy="51" rx="53" ry="51" fill="#27A966"/>
<path d="M104 51C104 77.9901 81.2397 100 53 100C24.7603 100 2 77.9901 2 51C2 24.0099 24.7603 2 53 2C81.2397 2 104 24.0099 104 51Z" stroke="black" stroke-opacity="0.02" stroke-width="4"/>
</g>
<path id="Vector" d="M75.5 38.5V68.5C75.5 69.875 75.0108 71.0525 74.0325 72.0325C73.0542 73.0125 71.8767 73.5017 70.5 73.5H35.5C34.125 73.5 32.9483 73.0108 31.97 72.0325C30.9917 71.0542 30.5017 69.8767 30.5 68.5V33.5C30.5 32.125 30.99 30.9483 31.97 29.97C32.95 28.9917 34.1267 28.5017 35.5 28.5H65.5L75.5 38.5ZM53 66C55.0833 66 56.8542 65.2708 58.3125 63.8125C59.7708 62.3542 60.5 60.5833 60.5 58.5C60.5 56.4167 59.7708 54.6458 58.3125 53.1875C56.8542 51.7292 55.0833 51 53 51C50.9167 51 49.1458 51.7292 47.6875 53.1875C46.2292 54.6458 45.5 56.4167 45.5 58.5C45.5 60.5833 46.2292 62.3542 47.6875 63.8125C49.1458 65.2708 50.9167 66 53 66ZM38 46H60.5V36H38V46Z" fill="white"/>
</g>
</svg>
