<svg width="178" height="38" viewBox="0 0 178 38" fill="none" xmlns="http://www.w3.org/2000/svg">
<mask id="path-1-outside-1_1073_38" maskUnits="userSpaceOnUse" x="-1" y="-1" width="180" height="40" fill="black">
<rect fill="white" x="-1" y="-1" width="180" height="40"/>
<path d="M13.6369 0.897949V33H8.34146V7.18213L0.497219 9.84082V5.46826L12.9997 0.897949H13.6369ZM25.2824 30.3633C25.2824 29.543 25.5607 28.8545 26.1173 28.2979C26.674 27.7266 27.4284 27.4409 28.3805 27.4409C29.3473 27.4409 30.1017 27.7266 30.6437 28.2979C31.2003 28.8545 31.4787 29.543 31.4787 30.3633C31.4787 31.1836 31.2003 31.8721 30.6437 32.4287C30.1017 32.9854 29.3473 33.2637 28.3805 33.2637C27.4284 33.2637 26.674 32.9854 26.1173 32.4287C25.5607 31.8721 25.2824 31.1836 25.2824 30.3633ZM69.9453 33V37.1309H49.9062V33H69.9453ZM91.4662 33V37.1309H71.4271V33H91.4662ZM112.987 33V37.1309H92.948V33H112.987ZM134.508 33V37.1309H114.469V33H134.508ZM156.029 33V37.1309H135.99V33H156.029ZM177.55 33V37.1309H157.511V33H177.55Z"/>
</mask>
<path d="M13.6369 0.897949V33H8.34146V7.18213L0.497219 9.84082V5.46826L12.9997 0.897949H13.6369ZM25.2824 30.3633C25.2824 29.543 25.5607 28.8545 26.1173 28.2979C26.674 27.7266 27.4284 27.4409 28.3805 27.4409C29.3473 27.4409 30.1017 27.7266 30.6437 28.2979C31.2003 28.8545 31.4787 29.543 31.4787 30.3633C31.4787 31.1836 31.2003 31.8721 30.6437 32.4287C30.1017 32.9854 29.3473 33.2637 28.3805 33.2637C27.4284 33.2637 26.674 32.9854 26.1173 32.4287C25.5607 31.8721 25.2824 31.1836 25.2824 30.3633ZM69.9453 33V37.1309H49.9062V33H69.9453ZM91.4662 33V37.1309H71.4271V33H91.4662ZM112.987 33V37.1309H92.948V33H112.987ZM134.508 33V37.1309H114.469V33H134.508ZM156.029 33V37.1309H135.99V33H156.029ZM177.55 33V37.1309H157.511V33H177.55Z" fill="black"/>
<path d="M13.6369 0.897949H14.6369V-0.102051H13.6369V0.897949ZM13.6369 33V34H14.6369V33H13.6369ZM8.34146 33H7.34146V34H8.34146V33ZM8.34146 7.18213H9.34146V5.78732L8.02046 6.23505L8.34146 7.18213ZM0.497219 9.84082H-0.502781V11.2356L0.818218 10.7879L0.497219 9.84082ZM0.497219 5.46826L0.153885 4.52905L-0.502781 4.7691V5.46826H0.497219ZM12.9997 0.897949V-0.102051H12.8226L12.6563 -0.0412645L12.9997 0.897949ZM12.6369 0.897949V33H14.6369V0.897949H12.6369ZM13.6369 32H8.34146V34H13.6369V32ZM9.34146 33V7.18213H7.34146V33H9.34146ZM8.02046 6.23505L0.17622 8.89374L0.818218 10.7879L8.66246 8.12921L8.02046 6.23505ZM1.49722 9.84082V5.46826H-0.502781V9.84082H1.49722ZM0.840553 6.40748L13.343 1.83716L12.6563 -0.0412645L0.153885 4.52905L0.840553 6.40748ZM12.9997 1.89795H13.6369V-0.102051H12.9997V1.89795ZM26.1173 28.2979L26.8245 29.005L26.8336 28.9957L26.1173 28.2979ZM30.6437 28.2979L29.9182 28.9861L29.9273 28.9957L29.9366 29.005L30.6437 28.2979ZM30.6437 32.4287L29.9365 31.7215L29.9272 31.7311L30.6437 32.4287ZM26.2824 30.3633C26.2824 29.7957 26.464 29.3654 26.8244 29.005L25.4102 27.5907C24.6574 28.3435 24.2824 29.2902 24.2824 30.3633H26.2824ZM26.8336 28.9957C27.166 28.6545 27.6418 28.4409 28.3805 28.4409V26.4409C27.2149 26.4409 26.1819 26.7986 25.4011 27.6L26.8336 28.9957ZM28.3805 28.4409C29.1399 28.4409 29.6067 28.6577 29.9182 28.9861L31.3692 27.6096C30.5968 26.7954 29.5547 26.4409 28.3805 26.4409V28.4409ZM29.9366 29.005C30.2971 29.3654 30.4787 29.7957 30.4787 30.3633H32.4787C32.4787 29.2902 32.1036 28.3435 31.3508 27.5907L29.9366 29.005ZM30.4787 30.3633C30.4787 30.9308 30.2971 31.3611 29.9366 31.7216L31.3508 33.1358C32.1036 32.383 32.4787 31.4364 32.4787 30.3633H30.4787ZM29.9272 31.7311C29.6173 32.0494 29.1475 32.2637 28.3805 32.2637V34.2637C29.5471 34.2637 30.5861 33.9213 31.3602 33.1263L29.9272 31.7311ZM28.3805 32.2637C27.6343 32.2637 27.1554 32.0526 26.8244 31.7216L25.4102 33.1358C26.1926 33.9181 27.2225 34.2637 28.3805 34.2637V32.2637ZM26.8244 31.7216C26.464 31.3611 26.2824 30.9308 26.2824 30.3633H24.2824C24.2824 31.4364 24.6574 32.383 25.4102 33.1358L26.8244 31.7216ZM69.9453 33H70.9453V32H69.9453V33ZM69.9453 37.1309V38.1309H70.9453V37.1309H69.9453ZM49.9062 37.1309H48.9062V38.1309H49.9062V37.1309ZM49.9062 33V32H48.9062V33H49.9062ZM68.9453 33V37.1309H70.9453V33H68.9453ZM69.9453 36.1309H49.9062V38.1309H69.9453V36.1309ZM50.9062 37.1309V33H48.9062V37.1309H50.9062ZM49.9062 34H69.9453V32H49.9062V34ZM91.4662 33H92.4662V32H91.4662V33ZM91.4662 37.1309V38.1309H92.4662V37.1309H91.4662ZM71.4271 37.1309H70.4271V38.1309H71.4271V37.1309ZM71.4271 33V32H70.4271V33H71.4271ZM90.4662 33V37.1309H92.4662V33H90.4662ZM91.4662 36.1309H71.4271V38.1309H91.4662V36.1309ZM72.4271 37.1309V33H70.4271V37.1309H72.4271ZM71.4271 34H91.4662V32H71.4271V34ZM112.987 33H113.987V32H112.987V33ZM112.987 37.1309V38.1309H113.987V37.1309H112.987ZM92.948 37.1309H91.948V38.1309H92.948V37.1309ZM92.948 33V32H91.948V33H92.948ZM111.987 33V37.1309H113.987V33H111.987ZM112.987 36.1309H92.948V38.1309H112.987V36.1309ZM93.948 37.1309V33H91.948V37.1309H93.948ZM92.948 34H112.987V32H92.948V34ZM134.508 33H135.508V32H134.508V33ZM134.508 37.1309V38.1309H135.508V37.1309H134.508ZM114.469 37.1309H113.469V38.1309H114.469V37.1309ZM114.469 33V32H113.469V33H114.469ZM133.508 33V37.1309H135.508V33H133.508ZM134.508 36.1309H114.469V38.1309H134.508V36.1309ZM115.469 37.1309V33H113.469V37.1309H115.469ZM114.469 34H134.508V32H114.469V34ZM156.029 33H157.029V32H156.029V33ZM156.029 37.1309V38.1309H157.029V37.1309H156.029ZM135.99 37.1309H134.99V38.1309H135.99V37.1309ZM135.99 33V32H134.99V33H135.99ZM155.029 33V37.1309H157.029V33H155.029ZM156.029 36.1309H135.99V38.1309H156.029V36.1309ZM136.99 37.1309V33H134.99V37.1309H136.99ZM135.99 34H156.029V32H135.99V34ZM177.55 33H178.55V32H177.55V33ZM177.55 37.1309V38.1309H178.55V37.1309H177.55ZM157.511 37.1309H156.511V38.1309H157.511V37.1309ZM157.511 33V32H156.511V33H157.511ZM176.55 33V37.1309H178.55V33H176.55ZM177.55 36.1309H157.511V38.1309H177.55V36.1309ZM158.511 37.1309V33H156.511V37.1309H158.511ZM157.511 34H177.55V32H157.511V34Z" fill="black" mask="url(#path-1-outside-1_1073_38)"/>
</svg>
