<svg width="24" height="24" viewBox="0 0 24 24" fill="none" xmlns="http://www.w3.org/2000/svg">
<path id="Vector" d="M7 14.3333C6.64583 14.3333 6.34917 14.2213 6.11 13.9973C5.87083 13.7733 5.75083 13.4964 5.75 13.1666C5.74917 12.8369 5.86917 12.56 6.11 12.336C6.35083 12.112 6.6475 12 7 12C7.3525 12 7.64958 12.112 7.89125 12.336C8.13292 12.56 8.2525 12.8369 8.25 13.1666C8.2475 13.4964 8.1275 13.7737 7.89 13.9985C7.6525 14.2233 7.35583 14.3349 7 14.3333ZM12 14.3333C11.6458 14.3333 11.3492 14.2213 11.11 13.9973C10.8708 13.7733 10.7508 13.4964 10.75 13.1666C10.7492 12.8369 10.8692 12.56 11.11 12.336C11.3508 12.112 11.6475 12 12 12C12.3525 12 12.6496 12.112 12.8913 12.336C13.1329 12.56 13.2525 12.8369 13.25 13.1666C13.2475 13.4964 13.1275 13.7737 12.89 13.9985C12.6525 14.2233 12.3558 14.3349 12 14.3333ZM17 14.3333C16.6458 14.3333 16.3492 14.2213 16.11 13.9973C15.8708 13.7733 15.7508 13.4964 15.75 13.1666C15.7492 12.8369 15.8692 12.56 16.11 12.336C16.3508 12.112 16.6475 12 17 12C17.3525 12 17.6496 12.112 17.8912 12.336C18.1329 12.56 18.2525 12.8369 18.25 13.1666C18.2475 13.4964 18.1275 13.7737 17.89 13.9985C17.6525 14.2233 17.3558 14.3349 17 14.3333ZM3.25 23.6666C2.5625 23.6666 1.97417 23.4384 1.485 22.9818C0.995833 22.5253 0.750833 21.9758 0.75 21.3333V4.99998C0.75 4.35831 0.995 3.8092 1.485 3.35265C1.975 2.89609 2.56333 2.66742 3.25 2.66665H4.5V0.333313H7V2.66665H17V0.333313H19.5V2.66665H20.75C21.4375 2.66665 22.0263 2.89531 22.5163 3.35265C23.0063 3.80998 23.2508 4.35909 23.25 4.99998V21.3333C23.25 21.975 23.0054 22.5245 22.5163 22.9818C22.0271 23.4391 21.4383 23.6674 20.75 23.6666H3.25ZM3.25 21.3333H20.75V9.66665H3.25V21.3333Z" fill="black" fill-opacity="0.25"/>
</svg>
