<svg width="50" height="50" viewBox="0 0 50 50" fill="none" xmlns="http://www.w3.org/2000/svg">
<rect x="50" y="50" width="50" height="50" rx="8" transform="rotate(180 50 50)" fill="#E81E21"/>
<path d="M20.1875 11V12.5556H13V15.6667H14.4375V35.8889C14.4375 36.714 14.7404 37.5053 15.2796 38.0888C15.8187 38.6722 16.55 39 17.3125 39H31.6875C32.45 39 33.1813 38.6722 33.7204 38.0888C34.2596 37.5053 34.5625 36.714 34.5625 35.8889V15.6667H36V12.5556H28.8125V11H20.1875ZM20.1875 18.7778H23.0625V32.7778H20.1875V18.7778ZM25.9375 18.7778H28.8125V32.7778H25.9375V18.7778Z" fill="white"/>
</svg>
