<svg width="65" height="65" viewBox="0 0 65 65" fill="none" xmlns="http://www.w3.org/2000/svg">
<g id="ViewQuestionButton">
<path id="Rectangle 36" d="M0 4C0 1.79086 1.79086 0 4 0H61C63.2091 0 65 1.79086 65 4V61C65 63.2091 63.2091 65 61 65H4C1.79086 65 0 63.2091 0 61V4Z" fill="#27A966"/>
<path id="Vector" d="M33 18C23 18 14.46 24.22 11 33C14.46 41.78 23 48 33 48C43 48 51.54 41.78 55 33C51.54 24.22 43 18 33 18ZM33 43C27.48 43 23 38.52 23 33C23 27.48 27.48 23 33 23C38.52 23 43 27.48 43 33C43 38.52 38.52 43 33 43ZM33 27C29.68 27 27 29.68 27 33C27 36.32 29.68 39 33 39C36.32 39 39 36.32 39 33C39 29.68 36.32 27 33 27Z" fill="white"/>
</g>
</svg>
